<svg width="22" height="22" viewBox="0 0 22 22" fill="none" xmlns="http://www.w3.org/2000/svg">
<g clip-path="url(#clip0_993_7045)">
<path fill-rule="evenodd" clip-rule="evenodd" d="M0 4.39884C0 2.85884 0 2.08884 0.29975 1.49759C0.56375 0.980594 0.9845 0.559844 1.5015 0.295844C2.09 -0.00390623 2.86 -0.00390625 4.40275 -0.00390625H5.22775C6.76775 -0.00390625 7.53775 -0.00390623 8.129 0.295844C8.646 0.559844 9.06675 0.980594 9.33075 1.49759C9.6305 2.08609 9.6305 2.85609 9.6305 4.39884V5.22384C9.6305 6.76384 9.6305 7.53384 9.33075 8.12509C9.0671 8.64252 8.64642 9.0632 8.129 9.32684C7.5405 9.62659 6.7705 9.62659 5.22775 9.62659H4.40275C2.86275 9.62659 2.09275 9.62659 1.5015 9.32684C0.984077 9.0632 0.563398 8.64252 0.29975 8.12509C0 7.53659 0 6.76659 0 5.22384V4.39884ZM4.4 1.37384H5.225C6.01837 1.37384 6.52988 1.37384 6.91625 1.40684C7.29025 1.43709 7.42775 1.48934 7.4965 1.52372C7.755 1.65572 7.96537 1.86609 8.09737 2.12459C8.13175 2.19334 8.184 2.33084 8.21425 2.70484C8.24588 3.09397 8.24725 3.60684 8.24725 4.39609V5.22109C8.24725 6.01447 8.24725 6.52597 8.21425 6.91234C8.184 7.28634 8.13175 7.42384 8.09737 7.49259C7.96555 7.7513 7.75521 7.96164 7.4965 8.09347C7.42775 8.12784 7.29025 8.18009 6.91625 8.21034C6.52713 8.24197 6.01425 8.24334 5.225 8.24334H4.4C3.60663 8.24334 3.09512 8.24334 2.70875 8.21034C2.33475 8.18009 2.19725 8.12784 2.1285 8.09347C1.86979 7.96164 1.65945 7.7513 1.52762 7.49259C1.49325 7.42384 1.441 7.28634 1.41075 6.91234C1.37935 6.34918 1.36834 5.78506 1.37775 5.22109V4.39609C1.37775 3.60272 1.37775 3.09122 1.41075 2.70484C1.441 2.33084 1.49325 2.19334 1.52762 2.12459C1.65962 1.86609 1.87 1.65572 2.1285 1.52372C2.19725 1.48934 2.33475 1.43709 2.70875 1.40684C3.09788 1.37384 3.61075 1.37384 4.4 1.37384ZM12.375 16.7738C12.375 15.2338 12.375 14.4638 12.6748 13.8726C12.9388 13.3556 13.3595 12.9348 13.8765 12.6708C14.465 12.3711 15.235 12.3711 16.7778 12.3711H17.6028C19.1427 12.3711 19.9128 12.3711 20.504 12.6708C21.021 12.9348 21.4417 13.3556 21.7057 13.8726C22.0055 14.4611 22.0055 15.2311 22.0055 16.7738V17.5988C22.0055 19.1388 22.0055 19.9088 21.7057 20.5001C21.4421 21.0175 21.0214 21.4382 20.504 21.7018C19.9155 22.0016 19.1455 22.0016 17.6028 22.0016H16.7778C15.2377 22.0016 14.4677 22.0016 13.8765 21.7018C13.3591 21.4382 12.9384 21.0175 12.6748 20.5001C12.375 19.9116 12.375 19.1416 12.375 17.5988V16.7738ZM17.6 13.7488C18.3934 13.7488 18.9049 13.7488 19.2913 13.7818C19.6652 13.8121 19.8027 13.8643 19.8715 13.8987C20.13 14.0307 20.3404 14.2411 20.4724 14.4996C20.5068 14.5683 20.559 14.7058 20.5893 15.0798C20.6209 15.469 20.6222 15.9818 20.6222 16.7711V17.5961C20.6222 18.3895 20.6222 18.901 20.5893 19.2873C20.559 19.6613 20.5068 19.7988 20.4724 19.8676C20.3406 20.1263 20.1302 20.3366 19.8715 20.4685C19.8027 20.5028 19.6652 20.5551 19.2913 20.5853C18.9021 20.617 18.3892 20.6183 17.6 20.6183H16.775C15.9816 20.6183 15.4701 20.6183 15.0838 20.5853C14.7098 20.5551 14.5723 20.5028 14.5035 20.4685C14.2448 20.3366 14.0344 20.1263 13.9026 19.8676C13.8682 19.7988 13.816 19.6613 13.7858 19.2873C13.7543 18.7242 13.7433 18.1601 13.7527 17.5961V16.7711C13.7527 15.9777 13.7528 15.4662 13.7858 15.0798C13.816 14.7058 13.8682 14.5683 13.9026 14.4996C14.0346 14.2411 14.245 14.0307 14.5035 13.8987C14.5723 13.8643 14.7098 13.8121 15.0838 13.7818C15.4729 13.7502 15.9858 13.7488 16.775 13.7488H17.6Z" fill="black"/>
<path d="M10.9991 3.4375C10.9991 3.25516 11.0715 3.0803 11.2005 2.95136C11.3294 2.82243 11.5043 2.75 11.6866 2.75H14.4366C15.3483 2.75 16.2226 3.11216 16.8673 3.75682C17.512 4.40148 17.8741 5.27582 17.8741 6.1875V8.64875L19.4554 7.0675C19.585 6.94227 19.7587 6.87297 19.939 6.87454C20.1192 6.8761 20.2916 6.94841 20.4191 7.07587C20.5466 7.20334 20.6189 7.37578 20.6205 7.55604C20.622 7.7363 20.5527 7.90996 20.4275 8.03962L17.6775 10.7896C17.5486 10.9185 17.3737 10.9909 17.1914 10.9909C17.0091 10.9909 16.8343 10.9185 16.7054 10.7896L13.9554 8.03962C13.8301 7.90996 13.7608 7.7363 13.7624 7.55604C13.764 7.37578 13.8363 7.20334 13.9637 7.07587C14.0912 6.94841 14.2636 6.8761 14.4439 6.87454C14.6242 6.87297 14.7978 6.94227 14.9275 7.0675L16.5087 8.64875V6.1875C16.5087 5.64049 16.2914 5.11589 15.9046 4.72909C15.5179 4.3423 14.9932 4.125 14.4462 4.125H11.6962C11.5139 4.125 11.339 4.05257 11.2101 3.92364C11.0812 3.7947 11.0087 3.61984 11.0087 3.4375H10.9991ZM4.55036 11.055C4.63235 11.0211 4.72013 11.0033 4.80886 11.0027H4.81711C4.99815 11.0035 5.17157 11.0756 5.29974 11.2035L8.04974 13.9535C8.17497 14.0832 8.24427 14.2568 8.2427 14.4371C8.24114 14.6173 8.16883 14.7898 8.04136 14.9172C7.9139 15.0447 7.74146 15.117 7.5612 15.1186C7.38094 15.1202 7.20728 15.0509 7.07761 14.9256L5.49636 13.3444V15.8056C5.49636 16.3526 5.71366 16.8772 6.10046 17.264C6.48725 17.6508 7.01186 17.8681 7.55886 17.8681H10.3089C10.4912 17.8681 10.6661 17.9406 10.795 18.0695C10.9239 18.1984 10.9964 18.3733 10.9964 18.5556C10.9964 18.738 10.9239 18.9128 10.795 19.0418C10.6661 19.1707 10.4912 19.2431 10.3089 19.2431H7.55886C6.64718 19.2431 5.77284 18.881 5.12818 18.2363C4.48353 17.5916 4.12136 16.7173 4.12136 15.8056V13.3444L2.54011 14.9256C2.41045 15.0509 2.23679 15.1202 2.05653 15.1186C1.87627 15.117 1.70383 15.0447 1.57636 14.9172C1.4489 14.7898 1.37659 14.6173 1.37503 14.4371C1.37346 14.2568 1.44276 14.0832 1.56799 13.9535L4.31799 11.2035C4.38167 11.1394 4.45736 11.0885 4.54074 11.0536L4.55036 11.055Z" fill="black"/>
</g>
<defs>
<clipPath id="clip0_993_7045">
<rect width="22" height="22" fill="white"/>
</clipPath>
</defs>
</svg>
